<svg xmlns="http://www.w3.org/2000/svg" xmlns:xlink="http://www.w3.org/1999/xlink" id="Layer_1" x="0px" y="0px" viewBox="0 0 337.2 277.2" style="enable-background:new 0 0 337.2 277.2;" xml:space="preserve"><style type="text/css">	.st0{fill:#B28541;}	.st1{fill:#0C297C;}	.st2{fill:#050D31;}</style><g>	<path class="st0" d="M228.8,23l-1.5,2.5h-21l-1.5-2.5v-0.4h24.1V23z M203.5,8.8h6v6h5.2v-6h4.2v6h5.1v-6h6.1v12.3h-26.6V8.8z   M177.3,37.1V42h-3.4v-4.9h-8.2V42h-3.4v-4.9h-2.7v-4.9H180v4.9H177.3z M157.8,28v-0.4h24.1V28l-1.6,2.6h-20.9L157.8,28z   M156.5,13.9h6v6h5.2v-6h4.2v6h5.1v-6h6.1v12.3h-26.6V13.9z M110.8,23v-0.4h24.1V23l-1.5,2.5h-21L110.8,23z M109.5,8.8h6v6h5.2v-6  h4.2v6h5.1v-6h6.1v12.3h-26.6V8.8z M231.6,7.3h-9.1v6h-2.1v-6h-7.2v6H211v-6h-9.1v15.3h1.3v0.8l1.8,3v10.6h-4.6v4.9H197v-4.9h-8.1  v4.9h-3.4v-4.9h-3.9v-5.6l1.8-3v-0.8h1.3V12.3h-9.1v6h-2.1v-6h-7.2v6H164v-6H155v15.3h1.3v0.8l1.8,3v5.6h-3.9v4.9h-3.4v-4.9h-8.2  v4.9h-3.4v-4.9h-4.7V26.4l1.8-3v-0.8h1.3V7.3h-9.1v6h-2.1v-6h-7.2v6h-2.2v-6H108v15.3h1.3v0.8l1.8,3v19.2h1.5V27h20.4v11.5h4.7v4.9  h6.4v-4.9h5.1v4.9h6.4v-4.9h5.1v4.9h6.4v-4.9h5.1v4.9h6.4v-4.9h5.1v4.9h6.5v-4.9h5.1v4.9h6.5v-4.9h4.6V27H227v18.6h1.5V26.4l1.8-3  v-0.8h1.3V7.3z"></path>	<path class="st0" d="M121.7,31.8h2.3v8.8h-2.3V31.8z M120.2,42.2h5.3V30.3h-5.3V42.2z"></path>	<path class="st0" d="M215.6,31.8h2.3v8.8h-2.3V31.8z M214.1,42.2h5.3V30.3h-5.3V42.2z"></path>	<g>		<path class="st1" d="M143,79h-2.2v-0.9l0.4-0.2v-6.5l-0.4-0.2v-0.9h2.2c2.4,0,4.3,1.9,4.3,4.3C147.3,77.1,145.3,79,143,79    M143,71.7h-0.5v6h0.5c1.7,0,3-1.3,3-3C146,73.1,144.6,71.7,143,71.7"></path>		<path class="st1" d="M154,79.1c-2.4,0-4.4-2-4.4-4.4c0-2.4,2-4.4,4.4-4.4c2.4,0,4.4,2,4.4,4.4C158.4,77.1,156.4,79.1,154,79.1    M154,71.6c-1.7,0-3.1,1.4-3.1,3.1c0,1.7,1.4,3.1,3.1,3.1c1.7,0,3.1-1.4,3.1-3.1C157.1,73,155.7,71.6,154,71.6"></path>	</g>	<polygon class="st1" points="151.5,90.9 151.5,91.7 149.3,91.7 149.3,90.9 149.7,90.7 149.7,85.8 147.7,90.6 146.6,90.6   144.6,85.7 144.6,90.7 145,90.9 145,91.7 142.8,91.7 142.8,90.9 143.3,90.7 143.3,84.2 142.8,84 142.8,83.2 144.9,83.2 147.2,88.6   149.4,83.2 151.5,83.2 151.5,84 151,84.2 151,90.7  "></polygon>	<polygon class="st1" points="156.3,90.7 156.3,91.7 154.1,91.7 154.1,90.7 154.6,90.6 154.6,84.2 154.1,84 154.1,83.2 156.3,83.2   156.3,84 155.8,84.2 155.8,90.6  "></polygon>	<polygon class="st1" points="148.8,103.6 148.8,104.5 146.7,104.5 144,98.3 144,103.5 144.4,103.6 144.4,104.5 142.2,104.5   142.2,103.6 142.7,103.4 142.7,96.9 142.2,96.7 142.2,95.9 144.3,95.9 147.1,102.1 147.1,96.9 146.6,96.7 146.6,95.9 148.8,95.9   148.8,96.7 148.4,96.9 148.4,103.5  "></polygon>	<polygon class="st1" points="155.9,99.5 155.9,100.8 153.2,100.8 153.2,103.2 155.6,103.2 155.9,102.9 156.9,102.9 156.9,104.5   151.5,104.5 151.5,103.6 152,103.4 152,100.8 151.5,100.8 151.5,99.5 152,99.5 152,96.9 151.5,96.7 151.5,95.9 156.9,95.9   156.9,97.5 155.9,97.5 155.6,97.2 153.2,97.2 153.2,99.5  "></polygon>	<g>		<path class="st1" d="M179.5,78.9h-2.2V78l0.4-0.2v-6.5l-0.4-0.2v-0.9h2.2c2.4,0,4.3,1.9,4.3,4.3C183.8,77,181.9,78.9,179.5,78.9    M179.5,71.6H179v6h0.5c1.7,0,3-1.3,3-3C182.5,72.9,181.2,71.6,179.5,71.6"></path>	</g>	<polygon class="st1" points="188.7,77.9 188.7,78.9 186.5,78.9 186.5,77.9 186.9,77.8 186.9,71.3 186.5,71.1 186.5,70.3   188.7,70.3 188.7,71.1 188.2,71.3 188.2,77.8  "></polygon>	<g>		<path class="st1" d="M195.4,78.9V78l0.3-0.1l-0.8-1.3c-0.2,0-0.4,0.1-0.6,0.1h-1.2v1.2l0.5,0.2v0.9h-2.2V78l0.4-0.2v-6.5l-0.4-0.2   v-0.9h2.9c1.8,0,3.2,1.4,3.2,3.2c0,1.1-0.6,2.1-1.4,2.6l1,1.7l0.5,0.2v0.9H195.4z M196.2,73.5c0-1-0.9-1.9-1.9-1.9h-1.2v3.8h1.2   C195.3,75.4,196.2,74.5,196.2,73.5"></path>	</g>	<polygon class="st1" points="202.4,77.9 202.4,78.9 200.2,78.9 200.2,77.9 200.7,77.8 200.7,71.3 200.2,71.1 200.2,70.3   202.4,70.3 202.4,71.1 202,71.3 202,77.8  "></polygon>	<g>		<path class="st1" d="M188.6,91.6V91c-0.7,0.5-1.6,0.8-2.5,0.8c-2.4,0-4.4-2-4.4-4.4c0-2.4,2-4.4,4.4-4.4h0c1.4,0,2.6,0.6,3.5,1.7   l-1,0.8c-0.6-0.8-1.5-1.2-2.5-1.2c-1.7,0-3.2,1.4-3.2,3.2c0,1.7,1.4,3.2,3.2,3.2c0.9,0,1.7-0.4,2.3-1.1c0,0,0.1-0.1,0.1-0.1v-0.3   l-1.4-0.4v-0.9h2.7v3.9H188.6z"></path>	</g>	<polygon class="st1" points="196.9,86.7 196.9,88 194.3,88 194.3,90.3 196.7,90.3 197,90 198,90 198,91.6 192.6,91.6 192.6,90.8   193,90.6 193,88 192.6,88 192.6,86.7 193,86.7 193,84.1 192.6,83.9 192.6,83 198,83 198,84.6 197,84.6 196.7,84.3 194.3,84.3   194.3,86.7  "></polygon>	<polygon class="st1" points="183.5,103.5 183.5,104.3 181.4,104.3 178.6,98.1 178.6,103.3 179.1,103.5 179.1,104.3 176.9,104.3   176.9,103.5 177.4,103.3 177.4,96.8 176.9,96.6 176.9,95.8 179,95.8 181.8,102 181.8,96.8 181.3,96.6 181.3,95.8 183.5,95.8   183.5,96.6 183.1,96.8 183.1,103.3  "></polygon>	<g>		<path class="st1" d="M190.2,104.5c-2.4,0-4.4-2-4.4-4.4c0-2.4,2-4.4,4.4-4.4c2.4,0,4.4,2,4.4,4.4   C194.6,102.5,192.6,104.5,190.2,104.5 M190.2,96.9c-1.7,0-3.1,1.4-3.1,3.1c0,1.7,1.4,3.1,3.1,3.1c1.7,0,3.1-1.4,3.1-3.1   C193.4,98.3,192,96.9,190.2,96.9"></path>		<path class="st1" d="M200.3,104.3H197v-1.9h1l0.3,0.6h2c0.7,0,1.2-0.5,1.2-1.2c0-0.8-0.7-1.1-1.3-1.2l-1-0.1   c-1.4-0.2-2.3-1.1-2.3-2.4c0-1.3,1.1-2.4,2.4-2.4h3.1v1.8h-1l-0.3-0.5h-1.8c-0.6,0-1.1,0.5-1.1,1.1c0,0.7,0.7,1,1.2,1.1l1,0.1   c1.4,0.2,2.4,1.2,2.4,2.4C202.8,103.2,201.7,104.3,200.3,104.3"></path>		<path class="st2" d="M239.1-0.6l-69.3,0l-69.3,0v75c0,14.5,4.7,63.4,68.3,82.2l0.1,0l0.9,0.3l0.9-0.3l0.1,0   c64-18.9,68.4-68.1,68.2-82.7L239.1-0.6z M235.9,67l-19.9,0v41.7l11.9,0c-6.4,13.1-17.8,26.9-38,37.1l0-25.2   c-4.8,0.4-9.4,1-12.5,1.7c-0.7,0.1-1.3,0.2-1.9,0.3c-1.2,1.7-3.3,2.6-5.8,2.6c-0.2,0-0.3,0-0.5,0c-2.4-0.1-4.5-1.1-5.5-2.6   c-0.6,0-1.1-0.1-1.7-0.2c-3-0.7-7.7-1.3-12.5-1.7l0,25.2c-20.2-10.1-31.6-24-38-37.1l12,0V67.1l-20,0V47.2h45.9l0,11.9   c2.3,0,4.7,0.1,7.1,0.2c8.6,0.3,11.9,4.8,13.2,8.2c1.3-3.3,4.5-7.9,13.2-8.2c2.3-0.1,4.7-0.1,6.9-0.2l0-11.9h45.9L235.9,67z    M235.9,45.6H103.7v-43h132.3V45.6z"></path>		<path class="st0" d="M215.4,65.2l-3.1-0.6c-0.4-0.1-0.8,0.2-0.9,0.6c-0.1,0.4,0.2,0.8,0.6,0.9l2.5,0.5v51.4c-1,0-3.2,0-7.2-0.1   c-5.9-0.1-22.7,1-30.1,2.7c-2.1,0.5-3.8,0.3-4.9-0.5c-0.4-0.3-0.6-0.6-0.8-0.9c6.9-4.7,19.5-4.6,19.6-4.6h18.3   c0.4,0,0.8-0.4,0.8-0.8V60.1c0-0.4-0.3-0.8-0.8-0.8c-0.1,0-13.4-0.5-26.4,0c-8.6,0.3-11.9,4.8-13.2,8.2c-1.3-3.3-4.5-7.9-13.2-8.2   c-13-0.5-26.2,0-26.4,0c-0.4,0-0.8,0.4-0.8,0.8v53.8c0,0.4,0.4,0.8,0.8,0.8h18.3c0.1,0,12.7-0.1,19.6,4.6   c-0.2,0.3-0.5,0.6-0.8,0.9c-1.1,0.8-2.8,1-4.9,0.5c-7.4-1.6-24.2-2.7-30.1-2.7c-4,0-6.1,0.1-7.2,0.1V66.7l2.5-0.5   c0.4-0.1,0.7-0.5,0.6-0.9c-0.1-0.4-0.5-0.7-0.9-0.6l-3.1,0.6c-0.4,0.1-0.6,0.4-0.6,0.8v52.9c0,0.4,0.4,0.8,0.8,0.8   c0,0,1.7,0,8-0.1c5.8,0,22.5,1,29.7,2.6c0.6,0.1,1.2,0.2,1.7,0.2c0.9,1.5,3,2.5,5.5,2.6c0.2,0,0.3,0,0.5,0c2.5,0,4.6-1,5.8-2.6   c0.6,0,1.2-0.1,1.9-0.3c7.2-1.6,23.8-2.7,29.7-2.6c6.2,0.1,8,0.1,8,0.1c0.4,0,0.8-0.4,0.8-0.8V66   C216.1,65.6,215.8,65.3,215.4,65.2 M148.7,113.1h-17.5V60.9c3-0.1,14.3-0.4,25.5,0c12.2,0.4,12.4,9.8,12.4,10.2   c0,0.4,0.4,0.8,0.8,0.8h0c0,0,0,0,0,0c0,0,0,0,0,0h0c0.4,0,0.8-0.4,0.8-0.8c0-0.4,0.2-9.7,12.4-10.2c11.2-0.4,22.5-0.1,25.5,0   v52.2h-17.5c-0.6,0-12.9-0.1-20.3,4.7c-0.1-0.3-0.1-0.6-0.1-0.6V75.8c0-0.4-0.4-0.8-0.8-0.8c0,0,0,0,0,0c0,0,0,0,0,0   c-0.4,0-0.8,0.4-0.8,0.8l0,41.4c0,0,0,0.3-0.1,0.6C161.6,113,149.2,113.1,148.7,113.1"></path>		<path class="st2" d="M21.7,202.6c0-5.2-4-7.3-9.4-9.9c-6.4-3-8.6-4.6-8.6-8.1c0-3,2.3-5,5.9-5c4.2,0,8.2,2.7,9.5,9.1h0.4v-10.5   h-0.4c-0.1,1.1-1.1,1.6-2.3,1.6c-0.6,0-1.5-0.3-2.4-0.6c-1.6-0.6-2.9-1-4.6-1c-5.9,0-9.7,3.9-9.7,8.3c0,5.4,3.5,7.2,8.9,9.7   c6.8,3.2,8.5,4.8,8.5,8.4c0,4-2.9,5.7-6.6,5.7c-5,0-9.2-3-10.4-9.3H0.1v11h0.4c0.1-1.1,0.7-2.1,2.3-2.1c0.6,0,1.5,0.2,2.5,0.7   C7,211.3,9,212,10.8,212C17.2,212,21.7,208.2,21.7,202.6 M56.1,186.1c0-2.9-0.1-4.6-0.6-7.4h-28c-0.5,2.8-0.6,4.5-0.6,7.4h0.5   c0-3.1,1.9-5.7,6.4-5.7l5.5,0v25.5c0,4.3-1.3,4.9-4.6,5.2v0.4h13.7V211c-3.3-0.2-4.6-0.8-4.6-5.2v-25.5l5.5,0   c4.5,0,6.4,2.5,6.4,5.7H56.1z M65.7,209c0-1.7-1.3-3.1-3-3.1c-1.7,0-3,1.4-3,3.1c0,1.7,1.3,3.1,3,3.1   C64.4,212,65.7,210.6,65.7,209 M109.4,194v-0.4H95.6v0.4c3.3,0.2,5.1,0.8,5.1,5.1v8.5c-2.7,2.1-5.5,2.7-8.6,2.7   c-6.6,0-13.9-5.8-13.9-15.6c0-10.3,6.5-15,13.2-15c5.4,0,10.2,2.1,12.7,8.5l0.5-0.1l-1.1-10H103c0.1,1-0.7,2.1-1.9,2.1   c-0.3,0-0.8-0.1-1-0.3c-1.7-0.8-5.3-1.8-8.3-1.8c-11.3,0-18.6,7.4-18.6,16.8c0,10.5,9.5,17.1,18.4,17.1c6.4,0,10.9-1.7,13.7-3.6   v-9.3C105.2,194.9,105.9,194.5,109.4,194 M143.1,202.9h-0.5c-0.1,0.9-2.1,6.7-8.3,6.8l-7,0.1c-2.8,0-3.8-0.7-3.8-2v-12.9l7.3,0.1   c4.5,0,5.2,1.4,5.6,4.9h0.5v-11.4h-0.5c-0.3,3.3-1.3,4.8-5.6,4.8l-7.3,0.1v-13.2l8.2,0.1c5.6,0,6.6,1,7.6,5.8h0.5l-0.4-7.4h-25.1   v0.4c3.6,0.3,4.8,0.8,4.8,5.2v21.6c0,4.3-1.3,4.8-4.6,5.2v0.4h25.8C142.4,205.6,143.1,204,143.1,202.9 M183.1,195   c0-9.7-7.3-16.9-16.8-16.9c-9.7,0-16.9,7.2-16.9,16.9c0,9.7,7.3,17,16.9,17C176.1,212,183.1,204.7,183.1,195 M178.2,197.2   c0,8.1-4.2,13.1-10.3,13.1c-8.6,0-13.6-8.3-13.6-17.4c0-8.2,4.3-13.1,10.4-13.1C173.2,179.8,178.2,187.8,178.2,197.2 M210.9,187.6   c0,5-4.2,7.1-8.4,7.1c-1.9,0-2.9-0.2-3.6-0.4v-13.8c0.7-0.3,1.6-0.4,2.7-0.4C206.8,180,210.9,183.1,210.9,187.6 M222.5,211.4V211   c-3.4-0.6-4.3-1.5-7.7-5.8l-7.9-9.7c5.2-0.8,8.7-3.1,8.7-7.7c0-4.5-4.7-9.1-13.2-9.1h-12.5v0.4c3.3,0.2,4.7,0.6,4.7,4.9v21.8   c0,4.3-1.3,4.9-4.6,5.2v0.4h13.5V211c-3.3-0.2-4.6-0.8-4.6-5.2v-9.8h3.1l12.2,15.3H222.5z M261.4,194v-0.4h-13.8v0.4   c3.3,0.2,5.1,0.8,5.1,5.1v8.5c-2.7,2.1-5.5,2.7-8.6,2.7c-6.6,0-13.9-5.8-13.9-15.6c0-10.3,6.5-15,13.2-15c5.4,0,10.2,2.1,12.7,8.5   l0.5-0.1l-1.1-10H255c0.1,1-0.7,2.1-1.9,2.1c-0.3,0-0.8-0.1-1-0.3c-1.7-0.8-5.3-1.8-8.3-1.8c-11.3,0-18.6,7.4-18.6,16.8   c0,10.5,9.5,17.1,18.4,17.1c6.4,0,10.9-1.7,13.7-3.6v-9.3C257.2,194.9,257.8,194.5,261.4,194 M295.1,202.9h-0.5   c-0.1,0.9-2.1,6.7-8.3,6.8l-7,0.1c-2.8,0-3.8-0.7-3.8-2v-12.9l7.3,0.1c4.5,0,5.2,1.4,5.6,4.9h0.5v-11.4h-0.5   c-0.3,3.3-1.3,4.8-5.6,4.8l-7.3,0.1v-13.2l8.2,0.1c5.6,0,6.6,1,7.6,5.8h0.5l-0.4-7.4h-25.1v0.4c3.6,0.3,4.8,0.8,4.8,5.2v21.6   c0,4.3-1.3,4.8-4.6,5.2v0.4h25.8C294.4,205.6,295.1,204,295.1,202.9 M306.8,180.5c0.4-1.3-0.7-2.4-1.8-2.4c-1,0-2,0.6-2,1.9v10.3   l0.6,0.1L306.8,180.5z M337.1,202.6c0-5.2-4-7.3-9.4-9.9c-6.4-3-8.6-4.6-8.6-8.1c0-3,2.3-5,5.9-5c4.2,0,8.2,2.7,9.5,9.1h0.4v-10.5   h-0.4c-0.1,1.1-1.1,1.6-2.3,1.6c-0.6,0-1.5-0.3-2.4-0.6c-1.6-0.6-2.9-1-4.6-1c-5.9,0-9.7,3.9-9.7,8.3c0,5.4,3.5,7.2,8.9,9.7   c6.8,3.2,8.5,4.8,8.5,8.4c0,4-2.9,5.7-6.6,5.7c-5,0-9.2-3-10.4-9.3h-0.4v11h0.4c0.1-1.1,0.7-2.1,2.3-2.1c0.6,0,1.5,0.2,2.5,0.7   c1.6,0.7,3.6,1.4,5.4,1.4C332.6,212,337.1,208.2,337.1,202.6"></path>		<path class="st0" d="M14.9,232c0-1.5-0.1-2.3-0.3-3.8H0.3C0.1,229.7,0,230.5,0,232h0.2c0-1.6,0.9-2.9,3.3-2.9l2.8,0v13   c0,2.2-0.7,2.5-2.4,2.6v0.2h7v-0.2c-1.7-0.1-2.4-0.4-2.4-2.6v-13l2.8,0c2.3,0,3.3,1.3,3.3,2.9H14.9z M28.5,244.9v-0.2   c-1.5-0.1-1.9-0.4-1.9-2.6v-5.7c0-1.6-0.9-3-2.8-3c-1.7,0-3,1.4-4,2.3v-8.2l-3.8,1.3v0.3c1-0.3,1.9-0.4,1.9,1.3v11.7   c0,2.2-0.4,2.5-1.9,2.6v0.2h5.8v-0.2c-1.5-0.1-1.9-0.4-1.9-2.6v-5.8c1.1-1,1.7-1.5,2.9-1.5c1.3,0,2,1,2,2.1v5.2   c0,2.2-0.2,2.5-1.9,2.6v0.2H28.5z M39.5,241.1l-0.2-0.1c-0.6,1.3-2.1,2.4-3.7,2.4c-2.1,0-4.1-1.7-4.1-5.5h7.7   c0-2.3-1.4-4.5-4.5-4.5c-3,0-4.8,3.2-4.8,6.1c0,3.6,2.2,5.8,4.8,5.8C37.5,245.2,39,242.8,39.5,241.1 M36.8,237.1h-5.3   c0.1-1.5,1.3-3,2.8-3C35.9,234.1,36.6,235.5,36.8,237.1 M60.5,240.5c0-2.4-2.1-4-4.3-4.2c2.1-0.4,3.5-1.3,3.5-3.6   c0-2.8-3-4.5-6.3-4.5H47v0.2c1.9,0.2,2.4,0.3,2.4,2.5v11.1c0,2.3-0.4,2.4-2.4,2.6v0.2h7.8C58.5,244.9,60.5,243,60.5,240.5    M57.4,232.6c0,2.2-1.6,3.4-3.7,3.4c-0.5,0-1.4,0-2.1-0.2l0-6.7c0.7-0.1,0.9-0.1,1.5-0.1C55.6,229,57.4,230.3,57.4,232.6    M58.1,240.4c0,2.2-1.6,3.8-4.2,3.8c-0.7,0-1.7-0.1-2.3-0.3v-7.1c0.6-0.1,1-0.1,1.6-0.1C56,236.6,58.1,237.9,58.1,240.4 M71,234.6   c0-0.6-0.5-1.3-1.6-1.3c-1.4,0-2.2,1.1-3,2.3v-2.4l-3.9,1.4v0.3c1.1-0.3,1.9-0.4,1.9,1.3v5.8c0,2,0,2.5-1.9,2.7v0.2h5.7v-0.2   c-1.6-0.2-1.9-0.6-1.9-2.6v-5.6c0.5-0.9,1-1.6,1.6-1.6c0.4,0,0.6,0.2,0.9,0.5c0.3,0.3,0.5,0.6,1,0.6C70.5,235.9,71,235.4,71,234.6    M76.4,228.9c0-0.7-0.5-1.2-1.2-1.2c-0.7,0-1.2,0.5-1.2,1.2c0,0.7,0.5,1.2,1.2,1.2C75.9,230.1,76.4,229.6,76.4,228.9 M78,244.9   v-0.2c-1.7-0.2-1.9-0.6-1.9-2.6v-8.8l-3.8,1.4v0.3c1.4-0.5,1.9,0.1,1.9,0.9v6.3c0,2-0.3,2.4-2,2.6v0.2H78z M86.2,242.7l-0.2-0.1   c-0.4,0.7-0.8,1-1.7,1c-0.9,0-1.6-0.4-1.6-2.3v-7h2.7v-0.8h-2.7V230h-0.2c-0.4,1.6-1.8,3.3-3.7,3.9v0.4h1.9v8.1   c0,1.2,0.7,2.8,2.5,2.8C84.7,245.2,85.7,244,86.2,242.7 M91.4,228.9c0-0.7-0.5-1.2-1.2-1.2c-0.7,0-1.2,0.5-1.2,1.2   c0,0.7,0.5,1.2,1.2,1.2C90.8,230.1,91.4,229.6,91.4,228.9 M92.9,244.9v-0.2c-1.7-0.2-1.8-0.6-1.8-2.6v-8.8l-3.8,1.4v0.3   c1.4-0.5,1.9,0.1,1.9,0.9v6.3c0,2-0.3,2.4-2,2.6v0.2H92.9z M101.9,241.9c0-1.8-1.1-2.6-3.5-3.8c-2-1-2.7-1.7-2.7-2.5   c0-1,1-1.6,2-1.6c1.8,0,2.9,1.3,3.2,3.1h0.3l-0.2-3.5h-0.3c-0.1,0.2-0.3,0.3-0.5,0.3c-0.1,0-0.2,0-0.3-0.1   c-0.6-0.3-1.1-0.5-2.1-0.5c-2.1,0-3.3,1.5-3.3,3.2c0,1.7,1,2.4,2.8,3.4c1.8,0.9,2.9,1.5,2.8,2.7c0,1.1-1,1.8-2,1.8   c-2,0-3.2-1.5-3.4-3.4h-0.2v3.8h0.2c0-0.2,0.3-0.4,0.6-0.4c0.2,0,0.4,0.1,0.5,0.1c0.8,0.3,1.2,0.5,2.2,0.5   C100.2,245.2,101.9,243.9,101.9,241.9 M115.7,244.9v-0.2c-1.5-0.1-1.9-0.4-1.9-2.6v-5.7c0-1.6-0.9-3-2.8-3c-1.7,0-3,1.4-4,2.3   v-8.2l-3.8,1.3v0.3c1-0.3,1.9-0.4,1.9,1.3v11.7c0,2.2-0.4,2.5-1.9,2.6v0.2h5.8v-0.2c-1.5-0.1-1.9-0.4-1.9-2.6v-5.8   c1.1-1,1.7-1.5,2.9-1.5c1.3,0,2,1,2,2.1v5.2c0,2.2-0.2,2.5-1.9,2.6v0.2H115.7z M130.5,244.9v-0.2c-1.7-0.1-2.4-0.4-2.4-2.6v-11   c0-2.2,0.7-2.5,2.4-2.6v-0.2h-7v0.2c1.7,0.1,2.4,0.4,2.4,2.6v11c0,2.2-0.7,2.5-2.4,2.6v0.2H130.5z M145,244.9v-0.2   c-1.5-0.1-1.9-0.4-1.9-2.6v-5.7c0-2-1.3-3-2.8-3c-1.7,0-3,1.4-4,2.3v-2.4l-3.8,1.3v0.3c1.1-0.3,1.9-0.4,1.9,1.3v5.8   c0,2.2-0.4,2.5-1.9,2.6v0.2h5.8v-0.2c-1.5-0.1-1.9-0.4-1.9-2.6v-5.8c1.1-1,1.7-1.5,2.9-1.5c1,0,2,0.6,2,2.1v5.2   c0,2.2-0.2,2.5-1.9,2.6v0.2H145z M153.2,242.7l-0.2-0.1c-0.4,0.7-0.8,1-1.7,1c-0.9,0-1.6-0.4-1.6-2.3v-7h2.7v-0.8h-2.7V230h-0.2   c-0.4,1.6-1.8,3.3-3.6,3.9v0.4h1.9v8.1c0,1.2,0.7,2.8,2.5,2.8C151.7,245.2,152.7,244,153.2,242.7 M164.1,241.1l-0.2-0.1   c-0.6,1.3-2.1,2.4-3.7,2.4c-2.1,0-4.1-1.7-4.1-5.5h7.7c0-2.3-1.4-4.5-4.5-4.5c-3,0-4.8,3.2-4.8,6.1c0,3.6,2.2,5.8,4.8,5.8   C162.1,245.2,163.6,242.8,164.1,241.1 M161.4,237.1h-5.3c0.1-1.5,1.3-3,2.8-3C160.5,234.1,161.2,235.5,161.4,237.1 M173.8,234.6   c0-0.6-0.5-1.3-1.6-1.3c-1.4,0-2.2,1.1-3,2.3v-2.4l-3.9,1.4v0.3c1.1-0.3,1.9-0.4,1.9,1.3v5.8c0,2,0,2.5-1.9,2.7v0.2h5.7v-0.2   c-1.6-0.2-1.9-0.6-1.9-2.6v-5.6c0.5-0.9,1-1.6,1.6-1.6c0.4,0,0.6,0.2,0.9,0.5c0.3,0.3,0.5,0.6,1,0.6   C173.2,235.9,173.8,235.4,173.8,234.6 M187.3,244.9v-0.2c-1.5-0.1-1.9-0.4-1.9-2.6v-5.7c0-2-1.3-3-2.8-3c-1.7,0-3,1.4-4,2.3v-2.4   l-3.8,1.3v0.3c1.1-0.3,1.9-0.4,1.9,1.3v5.8c0,2.2-0.4,2.5-1.9,2.6v0.2h5.8v-0.2c-1.5-0.1-1.9-0.4-1.9-2.6v-5.8   c1.1-1,1.7-1.5,2.9-1.5c1,0,2,0.6,2,2.1v5.2c0,2.2-0.2,2.5-1.9,2.6v0.2H187.3z M199.3,243.3l-0.3-0.1c-0.2,0.5-0.7,1-1.1,1   c-0.5,0-0.9-0.3-0.9-1.1v-7c0-2.3-2-2.6-3.6-2.6c-2.4,0-4.3,1.2-4.3,2.8c0,0.6,0.4,1,1.1,1c0.7,0,1-0.4,1-1.1c0-0.4,0-0.5,0-0.8   c0-1,1-1.4,1.9-1.4c1.6,0,2.1,0.7,2.1,1.7v1.9c-5,2.1-6.4,2.6-6.5,5.1c0,1.6,1,2.7,2.6,2.7c1.4,0,2.6-0.9,3.8-2c0,1.2,0.6,2,1.7,2   C198,245.2,198.8,244.3,199.3,243.3 M195.2,242.5c-1.1,0.8-1.8,1.3-2.7,1.3c-1.1,0-1.8-1-1.8-1.9c0-1.7,1.8-2.4,4.5-3.8V242.5z    M207.2,242.7l-0.2-0.1c-0.4,0.7-0.8,1-1.7,1c-0.9,0-1.6-0.4-1.6-2.3v-7h2.7v-0.8h-2.7V230h-0.2c-0.4,1.6-1.9,3.3-3.7,3.9v0.4h1.9   v8.1c0,1.2,0.7,2.8,2.5,2.8C205.7,245.2,206.7,244,207.2,242.7 M212.4,228.9c0-0.7-0.5-1.2-1.2-1.2c-0.7,0-1.2,0.5-1.2,1.2   c0,0.7,0.5,1.2,1.2,1.2C211.8,230.1,212.4,229.6,212.4,228.9 M213.9,244.9v-0.2c-1.7-0.2-1.8-0.6-1.8-2.6v-8.8l-3.8,1.4v0.3   c1.4-0.5,1.9,0.1,1.9,0.9v6.3c0,2-0.3,2.4-2,2.6v0.2H213.9z M226.5,239.1c0-3.4-2.3-5.8-5.6-5.8c-3.4,0-5.6,3.1-5.6,6.1   c0,3.4,2.3,5.8,5.6,5.8C224.2,245.2,226.5,242.1,226.5,239.1 M224.3,240c0,2.8-1.2,4.5-2.9,4.5c-2.5,0-3.9-3.4-3.9-6   c0-2.8,1.2-4.5,3-4.5C222.9,234,224.3,237.4,224.3,240 M240.6,244.9v-0.2c-1.5-0.1-1.9-0.4-1.9-2.6v-5.7c0-2-1.3-3-2.8-3   c-1.7,0-3,1.4-4,2.3v-2.4l-3.8,1.3v0.3c1.1-0.3,1.9-0.4,1.9,1.3v5.8c0,2.2-0.4,2.5-1.9,2.6v0.2h5.8v-0.2c-1.5-0.1-1.9-0.4-1.9-2.6   v-5.8c1.1-1,1.7-1.5,2.9-1.5c1,0,2,0.6,2,2.1v5.2c0,2.2-0.2,2.5-1.9,2.6v0.2H240.6z M252.6,243.3l-0.3-0.1c-0.2,0.5-0.7,1-1.1,1   c-0.5,0-0.9-0.3-0.9-1.1v-7c0-2.3-2-2.6-3.6-2.6c-2.4,0-4.3,1.2-4.3,2.8c0,0.6,0.4,1,1.1,1c0.7,0,1-0.4,1-1.1c0-0.4,0-0.5,0-0.8   c0-1,1-1.4,1.9-1.4c1.6,0,2.1,0.7,2.1,1.7v1.9c-5,2.1-6.4,2.6-6.5,5.1c0,1.6,1,2.7,2.6,2.7c1.4,0,2.6-0.9,3.8-2c0,1.2,0.6,2,1.7,2   C251.3,245.2,252,244.3,252.6,243.3 M248.5,242.5c-1.1,0.8-1.8,1.3-2.7,1.3c-1.1,0-1.8-1-1.8-1.9c0-1.7,1.8-2.4,4.5-3.8V242.5z    M259.2,244.9v-0.2c-1.7-0.2-1.9-0.6-1.9-2.6v-14.6l-3.9,1.3v0.3c1-0.3,2-0.4,2,1.3v11.7c0,2-0.3,2.4-2,2.6v0.2H259.2z    M278.4,240.4c0-2.7-2-3.7-4.8-5c-3.3-1.5-4.4-2.4-4.4-4.1c0-1.5,1.2-2.6,3-2.6c2.1,0,4.2,1.4,4.9,4.6h0.2V228h-0.2   c-0.1,0.6-0.6,0.8-1.2,0.8c-0.3,0-0.8-0.1-1.2-0.3c-0.8-0.3-1.5-0.5-2.4-0.5c-3,0-5,2-5,4.2c0,2.8,1.8,3.7,4.6,5   c3.5,1.6,4.3,2.4,4.3,4.3c0,2-1.5,2.9-3.4,2.9c-2.5,0-4.7-1.5-5.3-4.7h-0.2v5.6h0.2c0-0.6,0.3-1.1,1.2-1.1c0.3,0,0.8,0.1,1.3,0.4   c0.8,0.4,1.8,0.7,2.8,0.7C276.1,245.2,278.4,243.3,278.4,240.4 M290.2,240.9l-0.2-0.1c-0.9,1.8-2.5,2.5-3.7,2.5   c-2.7,0-4-2.5-4-4.8c0-2.7,1.4-4.6,3.2-4.6c1.4,0,1.7,0.7,1.8,1.5c0.1,0.8,0.5,1.5,1.3,1.5c0.7,0,1.2-0.4,1.2-1.1   c0-0.9-1.3-2.6-4-2.6c-3.3,0-5.3,2.9-5.3,6.1c0,3.2,2,5.7,4.8,5.7C288,245.2,289.5,243.1,290.2,240.9 M304.1,244.9v-0.2   c-1.5-0.1-1.9-0.4-1.9-2.6v-5.7c0-1.6-0.9-3-2.8-3c-1.7,0-3,1.4-4,2.3v-8.2l-3.8,1.3v0.3c1-0.3,1.9-0.4,1.9,1.3v11.7   c0,2.2-0.4,2.5-1.9,2.6v0.2h5.8v-0.2c-1.5-0.1-1.9-0.4-1.9-2.6v-5.8c1.1-1,1.7-1.5,2.9-1.5c1.3,0,2,1,2,2.1v5.2   c0,2.2-0.2,2.5-1.9,2.6v0.2H304.1z M316.6,239.1c0-3.4-2.3-5.8-5.6-5.8c-3.4,0-5.6,3.1-5.6,6.1c0,3.4,2.3,5.8,5.6,5.8   C314.3,245.2,316.6,242.1,316.6,239.1 M314.4,240c0,2.8-1.2,4.5-2.9,4.5c-2.5,0-3.9-3.4-3.9-6c0-2.8,1.2-4.5,3-4.5   C313,234,314.4,237.4,314.4,240 M329.8,239.1c0-3.4-2.3-5.8-5.6-5.8c-3.4,0-5.6,3.1-5.6,6.1c0,3.4,2.3,5.8,5.6,5.8   C327.5,245.2,329.8,242.1,329.8,239.1 M327.6,240c0,2.8-1.2,4.5-2.9,4.5c-2.5,0-3.9-3.4-3.9-6c0-2.8,1.2-4.5,3-4.5   C326.2,234,327.6,237.4,327.6,240 M337.2,244.9v-0.2c-1.7-0.2-1.9-0.6-1.9-2.6v-14.6l-3.9,1.3v0.3c1-0.3,2-0.4,2,1.3v11.7   c0,2-0.3,2.4-2,2.6v0.2H337.2z"></path>	</g>	<rect x="259.3" y="267.5" class="st2" width="77.6" height="0.7"></rect>	<g>		<path class="st1" d="M81.5,272.6c1.3-0.1,1.6-0.3,1.6-1.8v-7.6c0-1.5-0.4-1.6-1.7-1.7v-0.1h5.4c3.6,0,7.1,2,7.1,5.8   c0,3.9-2.7,5.7-6.9,5.7h-5.6V272.6z M91.9,267c0-2.6-1.9-5.2-5.3-5.2c-0.7,0-1.2,0.1-1.7,0.3v9.8c0.3,0.1,0.8,0.2,1.6,0.2   C90,272.1,91.9,270.4,91.9,267z"></path>		<path class="st1" d="M101.2,271.3c-0.7,0.7-1.6,1.6-2.8,1.6c-1.3,0-2.1-1-2.1-2.3v-3.7c0-1.5-0.2-1.7-1.3-1.8V265H98v5.3   c0,1,0.5,1.7,1.3,1.7c0.8,0,1.3-0.5,1.9-1v-4c0-1.5-0.2-1.7-1.2-1.8V265h2.8v5.9c0,1.2,0.6,1.1,1.3,0.8v0.2l-2.9,1V271.3z    M97.1,262.9c0-0.5,0.4-0.9,0.9-0.9s0.9,0.4,0.9,0.9c0,0.5-0.4,0.9-0.9,0.9S97.1,263.4,97.1,262.9z M100,262.9   c0-0.5,0.4-0.9,0.9-0.9c0.5,0,0.9,0.4,0.9,0.9c0,0.5-0.4,0.9-0.9,0.9C100.4,263.8,100,263.4,100,262.9z"></path>		<path class="st1" d="M105.9,272.5c-0.1,0-0.1,0-0.2,0c-0.2,0-0.3,0.1-0.3,0.3h-0.2V270h0.1c0.2,1.3,1.2,2.5,2.4,2.5   c0.8,0,1.3-0.5,1.3-1.2c0-0.7-0.4-1-1.9-1.8c-1.6-0.9-2.1-1.4-2.1-2.5c0-1.2,1-2.2,2.4-2.2c0.6,0,1.1,0.2,1.4,0.4   c0.1,0.1,0.2,0.1,0.3,0.1c0.1,0,0.2-0.1,0.3-0.2h0.2l0.1,2.5h-0.2c-0.2-1.2-1-2.2-2.2-2.2c-0.7,0-1.2,0.3-1.2,1c0,0.7,0.4,1,2,1.9   c1.7,0.9,2.3,1.4,2.3,2.6c0,1.4-1.3,2.3-2.7,2.3C106.9,272.9,106.6,272.8,105.9,272.5z"></path>		<path class="st1" d="M112.3,272.5c-0.1,0-0.1,0-0.2,0c-0.2,0-0.3,0.1-0.3,0.3h-0.2V270h0.1c0.2,1.3,1.2,2.5,2.4,2.5   c0.8,0,1.3-0.5,1.3-1.2c0-0.7-0.4-1-1.9-1.8c-1.6-0.9-2.1-1.4-2.1-2.5c0-1.2,1-2.2,2.4-2.2c0.6,0,1.1,0.2,1.4,0.4   c0.1,0.1,0.2,0.1,0.3,0.1c0.1,0,0.2-0.1,0.3-0.2h0.2l0.1,2.5H116c-0.2-1.2-1-2.2-2.2-2.2c-0.7,0-1.2,0.3-1.2,1c0,0.7,0.4,1,2,1.9   c1.7,0.9,2.3,1.4,2.3,2.6c0,1.4-1.3,2.3-2.7,2.3C113.4,272.9,113,272.8,112.3,272.5z"></path>		<path class="st1" d="M117.9,269c0-2,1.3-4.2,3.4-4.2c2.1,0,3.3,1.5,3.3,3.1h-5.2c0,2.1,1.2,3.7,2.7,3.7c0.9,0,1.9-0.3,2.6-1.6   l0.1,0c-0.6,1.5-1.8,2.9-3.5,2.9C119.5,272.9,117.9,271.2,117.9,269z M122.8,267.4c-0.1-0.9-0.5-2-1.6-2c-1,0-1.7,1-1.8,2H122.8z"></path>		<path class="st1" d="M125.7,272.6c1.2-0.2,1.4-0.4,1.4-1.8v-7.9c0-1.3-0.6-1.2-1.3-0.9v-0.2l2.9-1v10c0,1.4,0.2,1.7,1.2,1.8v0.1   h-4.2V272.6z"></path>		<path class="st1" d="M136.6,271.6c-0.5,0.6-1.4,1.3-2.4,1.3c-2.2,0-3.5-1.6-3.5-3.7c0-2.6,1.6-4.4,3.8-4.4c1,0,1.5,0.3,2,0.9v-2.8   c0-1.1-0.6-1.1-1.4-0.9v-0.2l3-1v10.1c0,1.1,0.5,1.1,1.3,0.8v0.2l-2.9,1.1V271.6z M136.6,271.1v-4.4c-0.4-0.7-1.1-1.4-1.9-1.4   c-1.4,0-2.1,1.1-2.1,3.2c0,2.1,0.9,3.5,2.3,3.5C135.5,271.9,136.1,271.6,136.6,271.1z"></path>		<path class="st1" d="M140.4,268.9c0-2.3,1.7-4.1,4-4.1c2.3,0,4,1.8,4,4.1c0,2.3-1.7,4.1-4,4.1C142,272.9,140.4,271.2,140.4,268.9z    M146.5,269.3c0-1.8-0.8-4.1-2.5-4.1c-1.2,0-1.9,1.2-1.9,3.1c0,1.8,0.8,4.1,2.5,4.1C145.8,272.5,146.5,271.2,146.5,269.3z"></path>		<path class="st1" d="M149.4,272.6c1.2-0.2,1.2-0.4,1.2-1.8V267c0-1.3-0.5-1.3-1.3-1.1v-0.2l2.9-1v1.4c0.6-0.8,1-1.4,2.1-1.4   c0.8,0,1.1,0.5,1.1,0.9c0,0.6-0.4,0.9-0.9,0.9c-0.3,0-0.6-0.1-0.9-0.4c-0.2-0.2-0.3-0.3-0.5-0.3c-0.3,0-0.5,0.2-0.9,0.8v4   c0,1.4,0.3,1.7,1.3,1.8v0.1h-4.1V272.6z"></path>		<path class="st1" d="M156.3,272.6c1-0.1,1.1-0.4,1.1-1.8v-5.3h-1.2V265h1.2v-0.7c0-1.5,0.9-3.5,3.1-3.5c1.2,0,2.2,0.6,2.2,1.3   c0,0.5-0.2,0.8-0.8,0.8c-0.5,0-0.9-0.5-1.1-0.9c-0.2-0.4-0.3-0.6-0.8-0.6c-0.5,0-1,0.3-1,1.4v2.2h1.6v0.5H159v5.3   c0,1.4,0.1,1.7,1.3,1.8v0.2h-4V272.6z"></path>		<path class="st1" d="M168.1,272.6c1.3-0.2,1.6-0.3,1.6-1.8v-7.6c0-1.6-0.2-1.7-1.6-1.8v-0.1h4.8c3,0,4.5,1.6,4.5,3.2   c0,1.6-1.4,2.5-3.1,2.7l2.8,3.4c1.3,1.6,1.6,1.8,2.9,2v0.1h-3.4l-4.3-5.4h-0.9v3.4c0,1.5,0.2,1.6,1.6,1.8v0.1h-5.1V272.6z    M175.5,264.4c0-1.6-1.1-2.6-3-2.6c-0.4,0-0.6,0-1,0.1v4.8c0.3,0.1,0.9,0.2,1.2,0.2C174.3,266.9,175.5,266.1,175.5,264.4z"></path>		<path class="st1" d="M180.3,272.6c1.2-0.2,1.4-0.4,1.4-1.8v-7.9c0-0.9-0.5-1.2-1.2-0.9v-0.2l2.8-1v5.6c0.7-0.7,1.6-1.6,2.8-1.6   c1.3,0,2,1,2,2.3v3.7c0,1.4,0.2,1.7,1.3,1.8v0.1h-4.2v-0.1c1.2-0.2,1.3-0.4,1.3-1.8v-3.3c0-1.1-0.4-1.7-1.3-1.7   c-0.8,0-1.3,0.5-1.9,1v4c0,1.4,0.2,1.7,1.2,1.8v0.1h-4.2V272.6z"></path>		<path class="st1" d="M190.1,269c0-2,1.3-4.2,3.4-4.2c2.1,0,3.3,1.5,3.3,3.1h-5.2c0,2.1,1.2,3.7,2.7,3.7c0.9,0,1.9-0.3,2.6-1.6   l0.1,0c-0.6,1.5-1.8,2.9-3.5,2.9C191.8,272.9,190.1,271.2,190.1,269z M195,267.4c-0.1-0.9-0.5-2-1.6-2c-1,0-1.7,1-1.8,2H195z"></path>		<path class="st1" d="M198,272.6c1.2-0.2,1.4-0.4,1.4-1.8v-4.2c0-0.8-0.5-0.9-1.3-0.6v-0.2l2.9-1v6c0,1.4,0.2,1.7,1.2,1.8v0.1H198   V272.6z M199.2,261.7c0-0.5,0.4-0.9,0.9-0.9c0.5,0,0.9,0.4,0.9,0.9s-0.4,0.9-0.9,0.9C199.6,262.7,199.2,262.3,199.2,261.7z"></path>		<path class="st1" d="M202.7,272.6c1.2-0.2,1.4-0.4,1.4-1.8v-4c0-1.2-0.5-1.1-1.2-0.9v-0.2l2.8-1v1.6c0.7-0.7,1.6-1.6,2.8-1.6   c1.3,0,2,1,2,2.3v3.7c0,1.4,0.2,1.7,1.3,1.8v0.1h-4.2v-0.1c1.2-0.2,1.3-0.4,1.3-1.8v-3.3c0-1.1-0.4-1.7-1.3-1.7   c-0.8,0-1.3,0.5-1.9,1v4c0,1.4,0.2,1.7,1.2,1.8v0.1h-4.2V272.6z"></path>		<path class="st1" d="M212.6,267.3h4.1v1.3h-4.1V267.3z"></path>		<path class="st1" d="M218.1,272.6c1.3-0.2,1.6-0.3,1.6-1.8v-7.6c0-1.6-0.2-1.7-1.6-1.8v-0.1h4.8c3,0,4.5,1.6,4.5,3.2   c0,1.6-1.4,2.5-3.1,2.7l2.8,3.4c1.3,1.6,1.6,1.8,2.9,2v0.1h-3.4l-4.3-5.4h-0.9v3.4c0,1.5,0.2,1.6,1.6,1.8v0.1h-5.1V272.6z    M225.4,264.4c0-1.6-1.1-2.6-3-2.6c-0.4,0-0.6,0-1,0.1v4.8c0.3,0.1,0.9,0.2,1.2,0.2C224.2,266.9,225.4,266.1,225.4,264.4z"></path>		<path class="st1" d="M235.5,271.3c-0.7,0.7-1.6,1.6-2.8,1.6c-1.3,0-2.1-1-2.1-2.3v-3.7c0-1.5-0.2-1.7-1.3-1.8V265h2.9v5.3   c0,1,0.5,1.7,1.3,1.7c0.8,0,1.3-0.5,1.9-1v-4c0-1.5-0.2-1.7-1.2-1.8V265h2.8v5.9c0,1.2,0.6,1.1,1.3,0.8v0.2l-2.9,1V271.3z"></path>		<path class="st1" d="M238.8,272.6c1.2-0.2,1.4-0.4,1.4-1.8v-7.9c0-0.9-0.5-1.2-1.2-0.9v-0.2l2.8-1v5.6c0.7-0.7,1.6-1.6,2.8-1.6   c1.3,0,2,1,2,2.3v3.7c0,1.4,0.2,1.7,1.3,1.8v0.1h-4.2v-0.1c1.2-0.2,1.3-0.4,1.3-1.8v-3.3c0-1.1-0.4-1.7-1.3-1.7   c-0.8,0-1.3,0.5-1.9,1v4c0,1.4,0.2,1.7,1.2,1.8v0.1h-4.2V272.6z"></path>		<path class="st1" d="M248.4,272.6c1.2-0.2,1.2-0.4,1.2-1.8V267c0-1.3-0.5-1.3-1.3-1.1v-0.2l2.9-1v1.4c0.6-0.8,1-1.4,2.1-1.4   c0.8,0,1.1,0.5,1.1,0.9c0,0.6-0.4,0.9-0.9,0.9c-0.3,0-0.6-0.1-0.9-0.4c-0.2-0.2-0.3-0.3-0.5-0.3c-0.3,0-0.5,0.2-0.9,0.8v4   c0,1.4,0.3,1.7,1.3,1.8v0.1h-4.1V272.6z"></path>	</g>	<rect x="0" y="267.5" class="st2" width="78.2" height="0.7"></rect></g></svg>